<?xml version="1.0" encoding="utf-8"?>
<!-- Generator: Adobe Illustrator 22.0.0, SVG Export Plug-In . SVG Version: 6.00 Build 0)  -->
<svg version="1.1" id="Layer_1" xmlns="http://www.w3.org/2000/svg" xmlns:xlink="http://www.w3.org/1999/xlink" x="0px" y="0px"
	 viewBox="0 0 144.4 142.8" style="enable-background:new 0 0 144.4 142.8;" xml:space="preserve">
<style type="text/css">
	.st0{fill:#FFFFFF;}
</style>
<path class="st0" d="M108,29c-1.6,0-3.2,0.6-4.4,1.8c-1.1,1.1-1.8,2.7-1.8,4.4c0,1.6,0.6,3.2,1.8,4.4c1.1,1.1,2.7,1.8,4.4,1.8
	s3.2-0.6,4.4-1.8c1.1-1.1,1.8-2.7,1.8-4.4c0-1.6-0.6-3.2-1.8-4.4C111.2,29.6,109.6,29,108,29L108,29z"/>
<path class="st0" d="M71.6,36.6c-19.2,0-34.9,15.6-34.9,34.8s15.6,34.9,34.9,34.9c19.2,0,34.9-15.6,34.9-34.9
	C106.5,52.2,90.9,36.6,71.6,36.6z M72,99.2c-15.5,0-28-12.5-28-28s12.5-28,28-28s28,12.5,28,28S87.5,99.2,72,99.2z"/>
<path class="st0" d="M101.9,3.8H41.3C20.8,3.8,4,20.5,4,41.1v60.6C4,122.3,20.8,139,41.3,139h60.6c20.6,0,37.3-16.7,37.3-37.3V41.1
	C139.3,20.5,122.5,3.8,101.9,3.8z M133.1,98.5c0,18.6-15.1,33.7-33.7,33.7H44.5c-18.5,0-33.7-15.1-33.7-33.7V43.7
	C10.8,25,26,9.9,44.5,9.9h54.8c18.6,0,33.8,15.1,33.7,33.7V98.5z"/>
</svg>
