<svg id="Layer_1" data-name="Layer 1" xmlns="http://www.w3.org/2000/svg" viewBox="0 0 2275.03 2275.03"><defs><style>.cls-1{fill:none;stroke:#000;stroke-miterlimit:10;stroke-width:60px;}</style></defs><title>instagram-logo2</title><path class="cls-1" d="M1770.87,168.29H778.38c-337.08,0-611.27,274.21-611.27,611.28v992.48c0,337.08,274.19,611.27,611.27,611.27h992.49c337.08,0,611.27-274.25,611.27-611.27V779.57c0-337.07-274.19-611.28-611.27-611.28Zm414.74,1603.76c0,228.71-186,414.74-414.74,414.74H778.38c-228.71,0-414.74-186-414.74-414.74V779.57c0-228.71,186-414.75,414.74-414.75h992.49c228.71,0,414.74,186,414.74,414.75Zm0,0" transform="translate(-137.11 -138.29)"/><path class="cls-1" d="M1274.62,705.11c-314.75,0-570.78,256-570.78,570.7s256,570.78,570.78,570.78,570.79-256,570.79-570.78-256.1-570.7-570.79-570.7Zm0,944.88c-206.32,0-374.25-167.8-374.25-374.18s167.87-374.24,374.25-374.24,374.26,167.93,374.26,374.24S1481,1650,1274.62,1650Zm0,0" transform="translate(-137.11 -138.29)"/><path class="cls-1" d="M1869.33,538.45a144,144,0,1,0,101.9,42.16,144.56,144.56,0,0,0-101.9-42.16Zm0,0" transform="translate(-137.11 -138.29)"/></svg>