<?xml version="1.0" encoding="utf-8"?>
<!-- Generator: Adobe Illustrator 22.0.0, SVG Export Plug-In . SVG Version: 6.00 Build 0)  -->
<svg version="1.1" id="Layer_1" xmlns="http://www.w3.org/2000/svg" xmlns:xlink="http://www.w3.org/1999/xlink" x="0px" y="0px"
	 viewBox="0 0 144.4 142.8" style="enable-background:new 0 0 144.4 142.8;" xml:space="preserve">
<style type="text/css">
	.st0{fill:#B62133;}
</style>
<path class="st0" d="M101.9,3.8H41.3C20.8,3.8,4,20.5,4,41.1v60.6C4,122.3,20.8,139,41.3,139h60.6c20.6,0,37.3-16.7,37.3-37.3V41.1
	C139.3,20.5,122.5,3.8,101.9,3.8L101.9,3.8z M127.3,101.7c0,14-11.4,25.3-25.3,25.3H41.3c-14,0-25.3-11.4-25.3-25.3V41.1
	c0-14,11.4-25.3,25.3-25.3h60.6c14,0,25.3,11.4,25.3,25.3V101.7z M127.3,101.7"/>
<path class="st0" d="M71.6,36.6c-19.2,0-34.9,15.6-34.9,34.8c0,19.2,15.6,34.9,34.9,34.9c19.2,0,34.9-15.6,34.9-34.9
	C106.5,52.2,90.9,36.6,71.6,36.6L71.6,36.6z M71.6,94.3C59,94.3,48.8,84,48.8,71.4c0-12.6,10.2-22.9,22.9-22.9s22.9,10.3,22.9,22.9
	C94.5,84,84.2,94.3,71.6,94.3L71.6,94.3z M71.6,94.3"/>
<path class="st0" d="M108,26.4c-2.3,0-4.6,0.9-6.2,2.6c-1.6,1.6-2.6,3.9-2.6,6.2c0,2.3,0.9,4.6,2.6,6.2c1.6,1.6,3.9,2.6,6.2,2.6
	c2.3,0,4.6-0.9,6.2-2.6c1.6-1.6,2.6-3.9,2.6-6.2c0-2.3-0.9-4.6-2.6-6.2C112.5,27.3,110.3,26.4,108,26.4L108,26.4z M108,26.4"/>
</svg>
