<?xml version="1.0" encoding="utf-8"?>
<!-- Generator: Adobe Illustrator 22.0.0, SVG Export Plug-In . SVG Version: 6.00 Build 0)  -->
<svg version="1.1" id="Layer_1" xmlns="http://www.w3.org/2000/svg" xmlns:xlink="http://www.w3.org/1999/xlink" x="0px" y="0px"
	 viewBox="0 0 512 512" style="enable-background:new 0 0 512 512;" xml:space="preserve">
<style type="text/css">
	.st0{fill:#FFFFFF;}
</style>
<g transform="translate(1)">
	<path class="st0" d="M69,140.8c-0.9,0-1.7,0-1.7,0c-17.1,0.9-35-6.8-47.8-19.6S-1,91.3-1,72.5c0-17.9,6.8-35,20.5-48.6
		C32.3,11.1,49.3,4.3,68.1,4.3l0,0l0,0c17.9,0,35,6.8,47.8,20.5c12.8,12.8,20.5,29.9,19.6,47.8c0,18.8-7.7,35.8-20.5,48.6
		C102.3,134,86,140.8,69,140.8z M67.3,123.7c13.7,0.9,26.5-5.1,35.8-14.5c10.2-9.4,15.4-23,15.4-36.7s-5.1-26.5-15.4-36.7
		c-9.4-9.4-22.2-14.5-35-14.5l0,0c-14.5,0-27.3,5.1-36.7,14.5c-10.2,10.2-15.4,23-15.4,36.7s5.1,27.3,15.4,36.7
		C40.8,118.6,54.5,123.7,67.3,123.7z"/>
	<path class="st0" d="M101.4,507.7H33.1c-13.7,0-25.6-11.9-25.6-25.6V183.5c0-14.5,11.1-25.6,24.7-25.6h69.1
		c13.7,0,25.6,11.9,25.6,25.6V483C127,495.8,115.1,507.7,101.4,507.7z M32.3,174.9c-4.3,0-7.7,4.3-7.7,8.5v298.7
		c0,4.3,4.3,8.5,8.5,8.5h68.3c4.3,0,8.5-3.4,8.5-7.7V183.5c0-4.3-4.3-8.5-8.5-8.5L32.3,174.9L32.3,174.9z"/>
	<path class="st0" d="M493.9,507.7h-85.3c-8.5,0-17.1-8.5-17.1-17.1V307.2c0-15.4-3.4-27.3-11.9-35c-9.4-9.4-22.2-14.5-35.8-14.5
		c-26.5,0-46.9,22.2-46.9,50.3v184.3c0,9.4-9.4,15.4-17.1,15.4h-93.9c-7.7,0-17.1-6-17.1-15.4V174.1c0-9.4,9.4-16.2,17.1-16.2h85.3
		c8.5,0,17.1,8.5,17.1,17.1v11.9c20.5-23,52.1-37.5,85.3-37.5h17.9c67.4,0,119.5,52.9,119.5,121.2v220.2
		C511,499.2,502.5,507.7,493.9,507.7z M409.5,490.7h83.6l0.9-0.9V270.5c0-58-44.4-104.1-101.5-104.1h-17.9
		c-31.6,0-61.4,15.4-78.5,39.3l-0.9,0.9l-23,23v-53.8l-0.9-0.9h-84.5l0,0v315.7h93.9V308.1c0-37.5,28.2-66.6,64-67.4
		c17.9,0,35,6.8,47.8,19.6c11.1,11.1,16.2,26.5,16.2,46.9L409.5,490.7C408.6,489.8,409.5,490.7,409.5,490.7z"/>
</g>
</svg>
