<?xml version="1.0" encoding="iso-8859-1"?>
<!-- Generator: Adobe Illustrator 22.0.0, SVG Export Plug-In . SVG Version: 6.00 Build 0)  -->
<svg version="1.1" id="Layer_1" xmlns="http://www.w3.org/2000/svg" xmlns:xlink="http://www.w3.org/1999/xlink" x="0px" y="0px"
	 viewBox="-49 141 512 512" style="enable-background:new -49 141 512 512;" xml:space="preserve">
<g transform="translate(1)">
	<path d="M19.973,281.8c-0.853,0-1.707,0-1.707,0C1.2,282.653-16.72,274.973-29.52,262.173c-12.8-12.8-20.48-29.867-20.48-48.64
		c0-17.92,6.827-34.987,20.48-48.64c12.8-12.8,29.867-19.627,48.64-19.627l0,0l0,0c17.92,0,34.987,6.827,47.787,20.48
		c12.8,12.8,20.48,29.867,19.627,47.787c0,18.773-7.68,35.84-20.48,48.64C53.253,274.973,37.04,281.8,19.973,281.8z M18.267,264.733
		c13.653,0.853,26.453-5.12,35.84-14.507c10.24-9.387,15.36-23.04,15.36-36.693s-5.12-26.453-15.36-36.693
		c-9.387-9.387-22.187-14.507-34.987-14.507l0,0c-14.507,0-27.307,5.12-36.693,14.507c-10.24,10.24-15.36,23.04-15.36,36.693
		s5.12,27.307,15.36,36.693C-8.187,259.613,5.467,264.733,18.267,264.733z"/>
	<path d="M52.4,648.733h-68.267c-13.653,0-25.6-11.947-25.6-25.6V324.467c0-14.507,11.093-25.6,24.747-25.6H52.4
		c13.653,0,25.6,11.947,25.6,25.6v299.52C78,636.787,66.053,648.733,52.4,648.733z M-16.72,315.933c-4.267,0-7.68,4.267-7.68,8.533
		v298.667c0,4.267,4.267,8.533,8.533,8.533H52.4c4.267,0,8.533-3.413,8.533-7.68v-299.52c0-4.267-4.267-8.533-8.533-8.533H-16.72z"
		/>
	<path d="M444.933,648.733H359.6c-8.533,0-17.067-8.533-17.067-17.067V448.2c0-15.36-3.413-27.307-11.947-34.987
		c-9.387-9.387-22.187-14.507-35.84-14.507c-26.453,0-46.933,22.187-46.933,50.347v184.32c0,9.387-9.387,15.36-17.067,15.36H136.88
		c-7.68,0-17.067-5.973-17.067-15.36V315.08c0-9.387,9.387-16.213,17.067-16.213h85.333c8.533,0,17.067,8.533,17.067,17.067v11.947
		c20.48-23.04,52.053-37.547,85.333-37.547h17.92C409.947,290.333,462,343.24,462,411.507v220.16
		C462,640.2,453.467,648.733,444.933,648.733z M360.453,631.667h83.627l0.853-0.853V411.507
		c0-58.027-44.373-104.107-101.547-104.107h-17.92c-31.573,0-61.44,15.36-78.507,39.253l-0.853,0.853l-23.04,23.04v-53.76
		l-0.853-0.853h-84.48l0,0v315.733H231.6V449.053c0-37.547,28.16-66.56,64-67.413c17.92,0,34.987,6.827,47.787,19.627
		C354.48,412.36,359.6,427.72,359.6,448.2L360.453,631.667C359.6,630.813,360.453,631.667,360.453,631.667z"/>
</g>
</svg>
